<svg width="189" height="27" viewBox="0 0 189 27" fill="none" xmlns="http://www.w3.org/2000/svg">
<g filter="url(#filter0_d_1_5264)">
<mask id="path-1-outside-1_1_5264" maskUnits="userSpaceOnUse" x="4.41553" y="0.000244141" width="181" height="19" fill="black">
<rect fill="white" x="4.41553" y="0.000244141" width="181" height="19"/>
<path d="M5.41553 17.4882H18.8075V14.8962H8.77553V1.26424H5.41553V17.4882Z"/>
<path d="M32.699 17.4882C35.219 17.4882 37.211 16.8882 38.675 15.6642C40.139 14.4642 40.883 12.6402 40.907 10.2162V1.00024H37.547V10.3362C37.547 11.8482 37.115 12.9762 36.275 13.7202C35.435 14.4882 34.259 14.8722 32.747 14.8722C31.235 14.8722 30.059 14.4642 29.195 13.6722C28.355 12.9042 27.923 11.7522 27.923 10.2402V1.00024H24.563V10.3362C24.587 12.7122 25.307 14.4882 26.771 15.6882C28.211 16.8882 30.179 17.4882 32.699 17.4882Z"/>
<path d="M46.6637 17.4882H50.6236L55.5676 11.4642L60.4636 17.4882H64.5436L57.7276 9.18424L64.2556 1.26424H60.2957L55.6396 6.95224L51.0076 1.26424H46.9277L53.5037 9.23224L46.6637 17.4882Z"/>
<path d="M70.3111 14.9442V17.4882H84.7112V14.9442H70.3111ZM70.3111 8.03224V10.5762H84.7112V8.03224H70.3111ZM70.3111 1.26424V3.80824H84.7112V1.26424H70.3111Z"/>
<path d="M90.4665 17.4882H97.5945C99.6105 17.4642 101.362 17.1042 102.898 16.4082C104.41 15.6882 105.586 14.7282 106.45 13.5042C107.29 12.2802 107.722 10.9122 107.746 9.37624V9.32825C107.722 7.79224 107.29 6.40025 106.45 5.20024C105.586 4.00024 104.41 3.04024 102.898 2.32024C101.362 1.62424 99.6105 1.26424 97.5945 1.26424H90.4665V17.4882ZM93.8265 14.8962V3.85624H97.5945C99.6105 3.88024 101.218 4.40824 102.418 5.41624C103.594 6.42424 104.194 7.74424 104.218 9.37624V9.42424C104.194 11.0322 103.594 12.3522 102.418 13.3362C101.218 14.3442 99.6105 14.8722 97.5945 14.8962H93.8265Z"/>
<path d="M121.761 9.30424H113.505V17.4882H116.865V11.8242H121.065L125.769 17.4882H129.705L124.569 11.3442C125.913 11.0322 127.017 10.4562 127.833 9.64024C128.673 8.82424 129.081 7.88825 129.105 6.54424V6.25624C129.105 5.56025 128.985 5.00824 128.697 4.43224C128.433 3.83224 128.049 3.32824 127.521 2.87224C126.921 2.36824 126.153 1.96024 125.217 1.67224C124.281 1.40824 123.225 1.26424 122.025 1.26424H113.505V3.85624H121.737C122.985 3.85624 123.969 4.07224 124.665 4.55224C125.337 5.00824 125.697 5.56024 125.697 6.42424V6.71224C125.697 7.55224 125.337 8.08024 124.641 8.56024C123.945 9.04024 122.985 9.30424 121.761 9.30424Z"/>
<path d="M135.465 17.4882H138.825V1.26424H135.465V17.4882Z"/>
<path d="M152.525 17.4882H155.477L163.421 1.14424H159.773L154.037 13.3842L148.277 1.14424H144.581L152.525 17.4882Z"/>
<path d="M169.189 14.9442V17.4882H183.589V14.9442H169.189ZM169.189 8.03224V10.5762H183.589V8.03224H169.189ZM169.189 1.26424V3.80824H183.589V1.26424H169.189Z"/>
</mask>
<path d="M5.41553 17.4882H18.8075V14.8962H8.77553V1.26424H5.41553V17.4882Z" fill="white"/>
<path d="M32.699 17.4882C35.219 17.4882 37.211 16.8882 38.675 15.6642C40.139 14.4642 40.883 12.6402 40.907 10.2162V1.00024H37.547V10.3362C37.547 11.8482 37.115 12.9762 36.275 13.7202C35.435 14.4882 34.259 14.8722 32.747 14.8722C31.235 14.8722 30.059 14.4642 29.195 13.6722C28.355 12.9042 27.923 11.7522 27.923 10.2402V1.00024H24.563V10.3362C24.587 12.7122 25.307 14.4882 26.771 15.6882C28.211 16.8882 30.179 17.4882 32.699 17.4882Z" fill="white"/>
<path d="M46.6637 17.4882H50.6236L55.5676 11.4642L60.4636 17.4882H64.5436L57.7276 9.18424L64.2556 1.26424H60.2957L55.6396 6.95224L51.0076 1.26424H46.9277L53.5037 9.23224L46.6637 17.4882Z" fill="white"/>
<path d="M70.3111 14.9442V17.4882H84.7112V14.9442H70.3111ZM70.3111 8.03224V10.5762H84.7112V8.03224H70.3111ZM70.3111 1.26424V3.80824H84.7112V1.26424H70.3111Z" fill="white"/>
<path d="M90.4665 17.4882H97.5945C99.6105 17.4642 101.362 17.1042 102.898 16.4082C104.41 15.6882 105.586 14.7282 106.45 13.5042C107.29 12.2802 107.722 10.9122 107.746 9.37624V9.32825C107.722 7.79224 107.29 6.40025 106.45 5.20024C105.586 4.00024 104.41 3.04024 102.898 2.32024C101.362 1.62424 99.6105 1.26424 97.5945 1.26424H90.4665V17.4882ZM93.8265 14.8962V3.85624H97.5945C99.6105 3.88024 101.218 4.40824 102.418 5.41624C103.594 6.42424 104.194 7.74424 104.218 9.37624V9.42424C104.194 11.0322 103.594 12.3522 102.418 13.3362C101.218 14.3442 99.6105 14.8722 97.5945 14.8962H93.8265Z" fill="white"/>
<path d="M121.761 9.30424H113.505V17.4882H116.865V11.8242H121.065L125.769 17.4882H129.705L124.569 11.3442C125.913 11.0322 127.017 10.4562 127.833 9.64024C128.673 8.82424 129.081 7.88825 129.105 6.54424V6.25624C129.105 5.56025 128.985 5.00824 128.697 4.43224C128.433 3.83224 128.049 3.32824 127.521 2.87224C126.921 2.36824 126.153 1.96024 125.217 1.67224C124.281 1.40824 123.225 1.26424 122.025 1.26424H113.505V3.85624H121.737C122.985 3.85624 123.969 4.07224 124.665 4.55224C125.337 5.00824 125.697 5.56024 125.697 6.42424V6.71224C125.697 7.55224 125.337 8.08024 124.641 8.56024C123.945 9.04024 122.985 9.30424 121.761 9.30424Z" fill="white"/>
<path d="M135.465 17.4882H138.825V1.26424H135.465V17.4882Z" fill="white"/>
<path d="M152.525 17.4882H155.477L163.421 1.14424H159.773L154.037 13.3842L148.277 1.14424H144.581L152.525 17.4882Z" fill="white"/>
<path d="M169.189 14.9442V17.4882H183.589V14.9442H169.189ZM169.189 8.03224V10.5762H183.589V8.03224H169.189ZM169.189 1.26424V3.80824H183.589V1.26424H169.189Z" fill="white"/>
<path d="M5.41553 17.4882H18.8075V14.8962H8.77553V1.26424H5.41553V17.4882Z" stroke="black" stroke-width="2" mask="url(#path-1-outside-1_1_5264)"/>
<path d="M32.699 17.4882C35.219 17.4882 37.211 16.8882 38.675 15.6642C40.139 14.4642 40.883 12.6402 40.907 10.2162V1.00024H37.547V10.3362C37.547 11.8482 37.115 12.9762 36.275 13.7202C35.435 14.4882 34.259 14.8722 32.747 14.8722C31.235 14.8722 30.059 14.4642 29.195 13.6722C28.355 12.9042 27.923 11.7522 27.923 10.2402V1.00024H24.563V10.3362C24.587 12.7122 25.307 14.4882 26.771 15.6882C28.211 16.8882 30.179 17.4882 32.699 17.4882Z" stroke="black" stroke-width="2" mask="url(#path-1-outside-1_1_5264)"/>
<path d="M46.6637 17.4882H50.6236L55.5676 11.4642L60.4636 17.4882H64.5436L57.7276 9.18424L64.2556 1.26424H60.2957L55.6396 6.95224L51.0076 1.26424H46.9277L53.5037 9.23224L46.6637 17.4882Z" stroke="black" stroke-width="2" mask="url(#path-1-outside-1_1_5264)"/>
<path d="M70.3111 14.9442V17.4882H84.7112V14.9442H70.3111ZM70.3111 8.03224V10.5762H84.7112V8.03224H70.3111ZM70.3111 1.26424V3.80824H84.7112V1.26424H70.3111Z" stroke="black" stroke-width="2" mask="url(#path-1-outside-1_1_5264)"/>
<path d="M90.4665 17.4882H97.5945C99.6105 17.4642 101.362 17.1042 102.898 16.4082C104.41 15.6882 105.586 14.7282 106.45 13.5042C107.29 12.2802 107.722 10.9122 107.746 9.37624V9.32825C107.722 7.79224 107.29 6.40025 106.45 5.20024C105.586 4.00024 104.41 3.04024 102.898 2.32024C101.362 1.62424 99.6105 1.26424 97.5945 1.26424H90.4665V17.4882ZM93.8265 14.8962V3.85624H97.5945C99.6105 3.88024 101.218 4.40824 102.418 5.41624C103.594 6.42424 104.194 7.74424 104.218 9.37624V9.42424C104.194 11.0322 103.594 12.3522 102.418 13.3362C101.218 14.3442 99.6105 14.8722 97.5945 14.8962H93.8265Z" stroke="black" stroke-width="2" mask="url(#path-1-outside-1_1_5264)"/>
<path d="M121.761 9.30424H113.505V17.4882H116.865V11.8242H121.065L125.769 17.4882H129.705L124.569 11.3442C125.913 11.0322 127.017 10.4562 127.833 9.64024C128.673 8.82424 129.081 7.88825 129.105 6.54424V6.25624C129.105 5.56025 128.985 5.00824 128.697 4.43224C128.433 3.83224 128.049 3.32824 127.521 2.87224C126.921 2.36824 126.153 1.96024 125.217 1.67224C124.281 1.40824 123.225 1.26424 122.025 1.26424H113.505V3.85624H121.737C122.985 3.85624 123.969 4.07224 124.665 4.55224C125.337 5.00824 125.697 5.56024 125.697 6.42424V6.71224C125.697 7.55224 125.337 8.08024 124.641 8.56024C123.945 9.04024 122.985 9.30424 121.761 9.30424Z" stroke="black" stroke-width="2" mask="url(#path-1-outside-1_1_5264)"/>
<path d="M135.465 17.4882H138.825V1.26424H135.465V17.4882Z" stroke="black" stroke-width="2" mask="url(#path-1-outside-1_1_5264)"/>
<path d="M152.525 17.4882H155.477L163.421 1.14424H159.773L154.037 13.3842L148.277 1.14424H144.581L152.525 17.4882Z" stroke="black" stroke-width="2" mask="url(#path-1-outside-1_1_5264)"/>
<path d="M169.189 14.9442V17.4882H183.589V14.9442H169.189ZM169.189 8.03224V10.5762H183.589V8.03224H169.189ZM169.189 1.26424V3.80824H183.589V1.26424H169.189Z" stroke="black" stroke-width="2" mask="url(#path-1-outside-1_1_5264)"/>
</g>
<defs>
<filter id="filter0_d_1_5264" x="0.415527" y="0.000244141" width="188.174" height="26.488" filterUnits="userSpaceOnUse" color-interpolation-filters="sRGB">
<feFlood flood-opacity="0" result="BackgroundImageFix"/>
<feColorMatrix in="SourceAlpha" type="matrix" values="0 0 0 0 0 0 0 0 0 0 0 0 0 0 0 0 0 0 127 0" result="hardAlpha"/>
<feOffset dy="4"/>
<feGaussianBlur stdDeviation="2"/>
<feComposite in2="hardAlpha" operator="out"/>
<feColorMatrix type="matrix" values="0 0 0 0 0 0 0 0 0 0 0 0 0 0 0 0 0 0 0.25 0"/>
<feBlend mode="normal" in2="BackgroundImageFix" result="effect1_dropShadow_1_5264"/>
<feBlend mode="normal" in="SourceGraphic" in2="effect1_dropShadow_1_5264" result="shape"/>
</filter>
</defs>
</svg>
